<svg width="914" height="400" fill="none" xmlns="http://www.w3.org/2000/svg">
  <path fill="#fff" d="M0 0h914v400H0z"/>
  <path d="M413.927 192.584h.7v5.432c-.56-.56-1.736-1.12-3.08-1.12-3.528 0-5.684 2.184-5.684 6.748s2.212 6.72 5.656 6.72c1.288 0 2.352-.42 3.22-1.316.168.532.728.952 1.4.952h2.212c.7 0 1.26-.56 1.26-1.26s-.56-1.26-1.26-1.26h-.7v-15.904c0-.84-.672-1.512-1.512-1.512h-2.212c-.7 0-1.26.56-1.26 1.26s.56 1.26 1.26 1.26zm.7 8.316v4.396c0 1.54-1.12 2.492-2.828 2.492-1.904 0-2.94-1.4-2.94-4.144 0-2.772 1.092-4.172 2.996-4.172 1.68 0 2.772 1.428 2.772 1.428zm12.821 9.464c2.548 0 4.032-1.092 4.508-1.54.252-.224.476-.588.476-1.036 0-.728-.588-1.316-1.316-1.316-.364 0-.588.112-.896.308-.672.448-1.54.868-2.772.868-1.848 0-3.276-.924-3.276-2.94h6.916c1.708 0 1.708-1.204 1.708-2.24 0-1.932-.868-5.572-5.6-5.572-3.808 0-6.048 2.408-6.048 6.692 0 4.676 2.408 6.776 6.3 6.776zm2.352-8.176h-5.544c.14-1.792 1.316-2.716 2.94-2.716 1.82 0 2.604 1.344 2.604 2.716zM446.415 210c.7 0 1.26-.56 1.26-1.26s-.56-1.26-1.26-1.26h-.672v-5.908c0-2.968-2.072-4.676-5.544-4.676-2.408 0-3.808.924-4.592 1.792-.252.28-.364.616-.364.924 0 .728.588 1.316 1.316 1.316.336 0 .56-.084.84-.28.7-.504 1.568-1.064 2.8-1.064 1.624 0 2.548.84 2.548 2.1v.504h-3.668c-2.436 0-4.536 1.344-4.536 3.948 0 2.52 1.82 4.228 4.564 4.228 1.68 0 2.912-.42 3.668-1.624 0 .7.616 1.26 1.372 1.26h2.268zm-8.848-3.864c0-1.008.672-1.596 1.904-1.596h3.276v.784c0 1.568-1.372 2.52-2.856 2.52-1.568 0-2.324-.644-2.324-1.708zm19.399-13.552h.7v5.432c-.56-.56-1.736-1.12-3.08-1.12-3.528 0-5.684 2.184-5.684 6.748s2.212 6.72 5.656 6.72c1.288 0 2.352-.42 3.22-1.316.168.532.728.952 1.4.952h2.212c.7 0 1.26-.56 1.26-1.26s-.56-1.26-1.26-1.26h-.7v-15.904c0-.84-.672-1.512-1.512-1.512h-2.212c-.7 0-1.26.56-1.26 1.26s.56 1.26 1.26 1.26zm.7 8.316v4.396c0 1.54-1.12 2.492-2.828 2.492-1.904 0-2.94-1.4-2.94-4.144 0-2.772 1.092-4.172 2.996-4.172 1.68 0 2.772 1.428 2.772 1.428zm11.785 6.524h-.924c-.252 0-.476-.196-.476-.504v-15.344c0-.812-.616-1.512-1.428-1.512h-2.268c-.7 0-1.26.56-1.26 1.26 0 .728.56 1.26 1.26 1.26h.672v14.056c0 2.352 1.372 3.584 3.556 3.584h.868c.728 0 1.316-.616 1.316-1.4 0-.784-.588-1.4-1.316-1.4zm7.88 2.576c.7 0 1.26-.56 1.26-1.26s-.56-1.26-1.26-1.26h-.672v-8.68c0-.868-.532-1.512-1.428-1.512h-2.268c-.7 0-1.26.56-1.26 1.26 0 .728.56 1.26 1.26 1.26h.672v7.672h-.672c-.7 0-1.26.56-1.26 1.26 0 .728.56 1.26 1.26 1.26h4.368zm-.448-16.212c0-1.288-.644-1.848-1.82-1.848-1.148 0-1.792.56-1.792 1.848 0 1.092.644 1.764 1.792 1.764 1.176 0 1.82-.672 1.82-1.764zM485.644 210c.7 0 1.26-.56 1.26-1.26s-.56-1.26-1.26-1.26h-.672v-4.816c0-1.736.7-3.024 2.8-3.024 1.82 0 2.464 1.092 2.464 2.688v5.152h-.672c-.7 0-1.26.56-1.26 1.26 0 .728.56 1.26 1.26 1.26h4.368c.7 0 1.26-.56 1.26-1.26s-.56-1.26-1.26-1.26h-.672v-5.712c0-2.436-.896-4.872-4.704-4.872-1.876 0-3.052.868-3.584 1.68 0-.812-.616-1.288-1.428-1.288h-2.268c-.7 0-1.26.56-1.26 1.26 0 .728.56 1.26 1.26 1.26h.672v7.672h-.672c-.7 0-1.26.56-1.26 1.26 0 .728.56 1.26 1.26 1.26h4.368zm17.218.364c2.548 0 4.032-1.092 4.508-1.54.252-.224.476-.588.476-1.036 0-.728-.588-1.316-1.316-1.316-.364 0-.588.112-.896.308-.672.448-1.54.868-2.772.868-1.848 0-3.276-.924-3.276-2.94h6.916c1.708 0 1.708-1.204 1.708-2.24 0-1.932-.868-5.572-5.6-5.572-3.808 0-6.048 2.408-6.048 6.692 0 4.676 2.408 6.776 6.3 6.776zm2.352-8.176h-5.544c.14-1.792 1.316-2.716 2.94-2.716 1.82 0 2.604 1.344 2.604 2.716z" fill="#333"/>
</svg>
